<svg xmlns="http://www.w3.org/2000/svg" width="49" height="40" viewBox="0 0 49 40" fill="none">
    <g clip-path="url(#clip0_1_784)">
        <path fill-rule="evenodd" clip-rule="evenodd" d="M46.4167 38.6667C46.4167 38.6667 49.5 38.6667 49.5 35.5556C49.5 32.4445 46.4167 23.1111 34.0834 23.1111C21.75 23.1111 18.6667 32.4445 18.6667 35.5556C18.6667 38.6667 21.75 38.6667 21.75 38.6667H46.4167ZM21.8179 35.5556H46.3489C46.3633 35.5539 46.3777 35.5518 46.392 35.5493L46.4167 35.5431C46.4105 34.7218 45.9018 32.3387 44.0734 30.192C42.3714 28.1791 39.3805 26.2222 34.0834 26.2222C28.7893 26.2222 25.7984 28.1822 24.0934 30.192C22.2649 32.3387 21.7531 34.7249 21.75 35.5431C21.7726 35.5475 21.7952 35.5517 21.8179 35.5556ZM34.0834 16.8889C35.7189 16.8889 37.2874 16.2333 38.4438 15.0665C39.6003 13.8996 40.25 12.3169 40.25 10.6667C40.25 9.01644 39.6003 7.43379 38.4438 6.2669C37.2874 5.10001 35.7189 4.44445 34.0834 4.44445C32.4478 4.44445 30.8793 5.10001 29.7229 6.2669C28.5664 7.43379 27.9167 9.01644 27.9167 10.6667C27.9167 12.3169 28.5664 13.8996 29.7229 15.0665C30.8793 16.2333 32.4478 16.8889 34.0834 16.8889ZM43.3334 10.6667C43.3334 11.8923 43.0941 13.106 42.6292 14.2384C42.1644 15.3708 41.483 16.3997 40.6241 17.2663C39.7651 18.133 38.7454 18.8205 37.6232 19.2896C36.5009 19.7586 35.2981 20 34.0834 20C32.8686 20 31.6658 19.7586 30.5435 19.2896C29.4213 18.8205 28.4016 18.133 27.5426 17.2663C26.6837 16.3997 26.0023 15.3708 25.5375 14.2384C25.0726 13.106 24.8334 11.8923 24.8334 10.6667C24.8334 8.19132 25.8079 5.81735 27.5426 4.06701C29.2773 2.31667 31.6301 1.33334 34.0834 1.33334C36.5366 1.33334 38.8894 2.31667 40.6241 4.06701C42.3588 5.81735 43.3334 8.19132 43.3334 10.6667ZM21.5527 23.9822C20.3193 23.5903 19.0479 23.3327 17.7602 23.2138C17.0366 23.1444 16.3102 23.1101 15.5834 23.1111C3.25002 23.1111 0.166687 32.4445 0.166687 35.5556C0.166687 37.6307 1.19344 38.6667 3.25002 38.6667H16.2494C15.7923 37.6954 15.5643 36.6306 15.5834 35.5556C15.5834 32.4133 16.7458 29.2027 18.9442 26.5209C19.6934 25.6062 20.566 24.7507 21.5527 23.9822ZM15.3367 26.2222C10.1937 26.2845 7.27377 28.2133 5.59335 30.192C3.7526 32.3511 3.25002 34.7436 3.25002 35.5556H12.5C12.5 32.3045 13.4959 29.0658 15.3367 26.2222ZM4.79169 12.2222C4.79169 9.74688 5.76624 7.37291 7.50095 5.62257C9.23566 3.87223 11.5884 2.8889 14.0417 2.8889C16.4949 2.8889 18.8477 3.87223 20.5824 5.62257C22.3171 7.37291 23.2917 9.74688 23.2917 12.2222C23.2917 14.6976 22.3171 17.0716 20.5824 18.8219C18.8477 20.5722 16.4949 21.5556 14.0417 21.5556C11.5884 21.5556 9.23566 20.5722 7.50095 18.8219C5.76624 17.0716 4.79169 14.6976 4.79169 12.2222ZM14.0417 6.00001C12.4062 6.00001 10.8377 6.65556 9.68119 7.82246C8.52472 8.98935 7.87502 10.572 7.87502 12.2222C7.87502 13.8725 8.52472 15.4551 9.68119 16.622C10.8377 17.7889 12.4062 18.4445 14.0417 18.4445C15.6772 18.4445 17.2457 17.7889 18.4022 16.622C19.5587 15.4551 20.2084 13.8725 20.2084 12.2222C20.2084 10.572 19.5587 8.98935 18.4022 7.82246C17.2457 6.65556 15.6772 6.00001 14.0417 6.00001Z" fill="#23A6F0"/>
    </g>
    <defs>
        <clipPath id="clip0_1_784">
            <rect width="48" height="39.5295" fill="white" transform="translate(0.5)"/>
        </clipPath>
    </defs>
</svg>